<svg xmlns="http://www.w3.org/2000/svg" viewBox="0 0 24 24"><defs><style>.cls-1{fill:#fff;}.cls-2{fill:#c7d7d8;}.cls-3{fill:#8c9899;}.cls-4{fill:#666;}.cls-5{fill:none;}</style></defs><title>cd-icon_1</title><g id="레이어_2" data-name="레이어 2"><g id="레이어_2-2" data-name="레이어 2"><path class="cls-1" d="M10.59,10.59,4.93,4.93A10,10,0,0,0,2.72,8.29l7.43,3A1.91,1.91,0,0,1,10.59,10.59Z"/><path class="cls-1" d="M13.41,13.41l5.66,5.66a10,10,0,0,0,2.21-3.36l-7.43-3A1.91,1.91,0,0,1,13.41,13.41Z"/><path class="cls-2" d="M12,2A10,10,0,0,0,4.93,4.93l5.66,5.66A2,2,0,0,1,12,10a2,2,0,0,1,2,2,1.47,1.47,0,0,1,0,.36,1.6,1.6,0,0,1-.05.21.85.85,0,0,1-.06.17l7.43,3q.16-.41.3-.84c.1-.35.18-.71.25-1.08A9.61,9.61,0,0,0,22,12,10,10,0,0,0,12,2Z"/><path class="cls-2" d="M12,14a2,2,0,0,1-2-2,1.47,1.47,0,0,1,0-.36,1.6,1.6,0,0,1,.05-.21.85.85,0,0,1,.06-.17l-7.43-3q-.17.41-.3.84c-.1.35-.18.71-.25,1.08A9.61,9.61,0,0,0,2,12a10,10,0,0,0,17.07,7.07l-5.66-5.66A2,2,0,0,1,12,14Z"/><path class="cls-3" d="M12.82,13.81l3.32,7.29a10.26,10.26,0,0,0,1-.52L13,13.71Z"/><path class="cls-3" d="M11.18,10.19,7.86,2.9a10.26,10.26,0,0,0-1,.52L11,10.29Z"/><path class="cls-4" d="M12,3a9,9,0,1,1-9,9,9,9,0,0,1,9-9m0,12a3,3,0,1,0-3-3,3,3,0,0,0,3,3M12,2A10,10,0,1,0,22,12,10,10,0,0,0,12,2Zm0,12a2,2,0,1,1,2-2,2,2,0,0,1-2,2Z"/><rect class="cls-5" width="24" height="24"/></g></g></svg>