<svg xmlns="http://www.w3.org/2000/svg" viewBox="0 0 24 24"><defs><style>.cls-1{fill:#2c2c2c;}.cls-2{fill:none;}</style></defs><title>delete-all-icon</title><g id="레이어_2" data-name="레이어 2"><g id="레이어_2-2" data-name="레이어 2"><polygon class="cls-1" points="13 4 13 2 11 2 11 4 4 4 4 6 20 6 20 4 13 4"/><path class="cls-1" d="M18,8H6a2,2,0,0,0-2,2V20a2,2,0,0,0,2,2H18a2,2,0,0,0,2-2V10A2,2,0,0,0,18,8Zm0,12H6V10H18Z"/><rect class="cls-1" x="8" y="12" width="2" height="6"/><rect class="cls-1" x="11" y="12" width="2" height="6"/><rect class="cls-1" x="14" y="12" width="2" height="6"/><rect class="cls-2" width="24" height="24"/></g></g></svg>