<svg xmlns="http://www.w3.org/2000/svg" viewBox="0 0 16 16"><defs><style>.cls-1{opacity:0.6;}.cls-2{fill:#fff;}.cls-3{fill:#2c2c2c;}.cls-4{fill:none;}</style></defs><title>edit-icon_1</title><g id="레이어_2" data-name="레이어 2"><g id="레이어_2-2" data-name="레이어 2"><g class="cls-1"><path class="cls-2" d="M12.33,2,10.8,3.53l-.94.94L5.67,8.67l2.66,2.66,4.2-4.19.94-.94L15,4.67Zm-4,7.45-.78-.78L10.8,5.41l.79.79Zm3.42-5,.58-.58.78.78-.58.58Z"/><polygon class="cls-2" points="4.33 12.67 7.67 12 5 9.33 4.33 12.67"/></g><path class="cls-3" d="M11.33,2,9.8,3.53l-.94.94L4.67,8.67l2.66,2.66,4.2-4.19.94-.94L14,4.67Zm-4,7.45-.78-.78L9.8,5.41l.79.79Zm3.42-5,.58-.58.78.78-.58.58Z"/><polygon class="cls-3" points="3.33 12.67 6.67 12 4 9.33 3.33 12.67"/><rect class="cls-4" width="16" height="16"/></g></g></svg>